<svg width="25" height="27" viewBox="0 0 25 27" fill="none" xmlns="http://www.w3.org/2000/svg">
<path d="M11.9854 26.0637C11.4761 26.0637 11.0499 25.6479 11.0499 25.1385L10.9875 18.5065L10.9252 12.5814C10.8524 10.0242 11.2058 8.58967 12.1518 7.65412C13.2952 6.51067 15.1143 6.40672 16.9231 6.4587C17.4428 6.46909 17.8482 6.90569 17.8274 7.42544C17.8066 7.94519 17.3804 8.35059 16.8607 8.3298C14.9896 8.27782 13.9813 8.46494 13.4719 8.97429C12.9522 9.49404 12.7443 10.5959 12.7963 12.5398C12.7963 12.5502 12.7963 12.5502 12.7963 12.5606L12.8066 13.6001L16.4657 13.5273C16.4761 13.5273 16.4761 13.5273 16.4865 13.5273C16.9958 13.5273 17.4116 13.9327 17.422 14.4421C17.422 14.4525 17.422 14.4525 17.422 14.4628C17.422 14.9722 17.0166 15.388 16.5073 15.3984L12.8378 15.4712L12.8586 18.4961L12.921 25.1281C12.9314 25.6375 12.5156 26.0637 11.9854 26.0637C11.9958 26.0637 11.9854 26.0637 11.9854 26.0637ZM8.11851 15.5439C7.61955 15.5439 7.20375 15.1489 7.18296 14.6396C7.16217 14.1198 7.56757 13.6936 8.08732 13.6728L9.00208 13.6416C9.51143 13.6209 9.94802 14.0263 9.96882 14.546C9.9896 15.0658 9.5842 15.492 9.06445 15.5127L8.14969 15.5439C8.1393 15.5439 8.1289 15.5439 8.11851 15.5439Z" fill="#5F5F5F"/>
<path d="M18.6902 26.1259H6.52806C6.00831 26.1259 5.59251 25.7101 5.59251 25.1904C5.59251 24.6706 6.00831 24.2548 6.52806 24.2548H18.6902C21.1434 24.2548 23.1393 22.2798 23.1393 19.8473V6.29225C23.1393 3.85982 21.1434 1.88477 18.6902 1.88477H6.27858C3.84615 1.88477 1.8711 3.85982 1.8711 6.29225V19.6914C1.8711 20.2112 1.4553 20.627 0.93555 20.627C0.4158 20.627 0 20.2112 0 19.6914V6.29225C0 2.83072 2.81705 0.0136719 6.27858 0.0136719H18.6798C22.1621 0.0136719 25 2.83072 25 6.29225V19.8577C25.0104 23.3089 22.1725 26.1259 18.6902 26.1259Z" fill="#5F5F5F"/>
</svg>
