<svg width="25" height="27" viewBox="0 0 25 27" fill="none" xmlns="http://www.w3.org/2000/svg">
<path d="M18.6902 0.238037H6.27858C2.81705 0.238037 0 3.05508 0 6.51662V19.9158C0 20.4355 0.4158 20.8513 0.93555 20.8513C1.4553 20.8513 1.8711 20.4355 1.8711 19.9158V6.51662C1.8711 4.08419 3.84615 2.10914 6.27858 2.10914H18.6798C21.133 2.10914 23.1289 4.08419 23.1289 6.51662V20.0821C23.1289 22.5145 21.133 24.4896 18.6798 24.4896H6.51766C5.99791 24.4896 5.58211 24.9054 5.58211 25.4251C5.58211 25.9449 5.99791 26.3607 6.51766 26.3607H18.6798C22.1621 26.3607 25 23.5436 25 20.0821V6.51662C25.0104 3.05508 22.1725 0.238037 18.6902 0.238037Z" fill="#5F5F5F"/>
<path d="M12.5052 6.3711C8.6902 6.3711 5.58209 9.4792 5.58209 13.2942C5.58209 17.1091 8.6902 20.2172 12.5052 20.2172C14.3347 20.2172 16.0706 19.4896 17.3804 18.1798C18.6902 16.87 19.4178 15.1341 19.4178 13.3046C19.4282 9.47921 16.3201 6.3711 12.5052 6.3711ZM12.5052 18.3461C9.7193 18.3461 7.45319 16.08 7.45319 13.2942C7.45319 10.5083 9.7193 8.2422 12.5052 8.2422C15.291 8.2422 17.5571 10.5083 17.5571 13.2942C17.5571 16.0281 15.239 18.3461 12.5052 18.3461ZM20.4262 5.60187C20.4262 4.99896 19.9376 4.5 19.3243 4.5C18.711 4.5 18.2224 4.98857 18.2224 5.60187C18.2224 6.21518 18.711 6.70374 19.3243 6.70374C19.9376 6.70374 20.4262 6.20478 20.4262 5.60187Z" fill="#5F5F5F"/>
</svg>
