<svg width="25" height="27" viewBox="0 0 25 27" fill="none" xmlns="http://www.w3.org/2000/svg">
<path d="M17.0582 19.5812C16.5385 19.5812 16.1227 19.1654 16.1227 18.6456V13.5937C16.1227 12.6269 15.3326 11.8369 14.3659 11.8369C13.4096 11.8369 12.63 12.6269 12.63 13.5937V18.6456C12.63 19.1654 12.2141 19.5812 11.6944 19.5812C11.1747 19.5812 10.7589 19.1654 10.7589 18.6456V13.5937C10.7589 11.5978 12.3805 9.96582 14.3659 9.96582C16.3618 9.96582 17.9938 11.5978 17.9938 13.5937V18.6456C17.9938 19.1654 17.578 19.5812 17.0582 19.5812Z" fill="#5F5F5F"/>
<path d="M11.6944 19.5812C11.1747 19.5812 10.7589 19.1654 10.7589 18.6456V10.9014C10.7589 10.3816 11.1747 9.96582 11.6944 9.96582C12.2141 9.96582 12.63 10.3816 12.63 10.9014V18.6456C12.63 19.1654 12.2141 19.5812 11.6944 19.5812Z" fill="#5F5F5F"/>
<path d="M7.95221 19.5394C7.43246 19.5394 7.01666 19.1236 7.01666 18.6039V10.8596C7.01666 10.3399 7.43246 9.92407 7.95221 9.92407C8.47196 9.92407 8.88776 10.3399 8.88776 10.8596V18.6039C8.88776 19.1236 8.46157 19.5394 7.95221 19.5394Z" fill="#5F5F5F"/>
<path d="M7.95221 9.36277C7.43246 9.36277 7.01666 8.94697 7.01666 8.42722V8.17774C7.01666 7.65799 7.43246 7.24219 7.95221 7.24219C8.47196 7.24219 8.88776 7.65799 8.88776 8.17774V8.42722C8.88776 8.94697 8.46157 9.36277 7.95221 9.36277Z" fill="#5F5F5F"/>
<path d="M18.6902 26.4731H6.52806C6.00831 26.4731 5.59251 26.0573 5.59251 25.5375C5.59251 25.0178 6.00831 24.602 6.52806 24.602H18.6902C21.1434 24.602 23.1393 22.6269 23.1393 20.1945V6.63942C23.1393 4.20699 21.1434 2.23194 18.6902 2.23194H6.27858C3.84615 2.23194 1.8711 4.20699 1.8711 6.63942V20.0386C1.8711 20.5583 1.4553 20.9741 0.93555 20.9741C0.4158 20.9741 0 20.5583 0 20.0386V6.63942C0 3.17789 2.81705 0.36084 6.27858 0.36084H18.6798C22.1621 0.36084 25 3.17789 25 6.63942V20.2049C25.0104 23.656 22.1725 26.4731 18.6902 26.4731Z" fill="#5F5F5F"/>
</svg>
