<svg width="25" height="27" viewBox="0 0 25 27" fill="none" xmlns="http://www.w3.org/2000/svg">
<path d="M18.6902 26.2382H6.52806C6.00831 26.2382 5.59251 25.8224 5.59251 25.3027C5.59251 24.7829 6.00831 24.3671 6.52806 24.3671H18.6902C21.1434 24.3671 23.1393 22.3921 23.1393 19.9596V6.40456C23.1393 3.97213 21.1434 1.99708 18.6902 1.99708H6.27858C3.84615 1.99708 1.8711 3.97213 1.8711 6.40456V19.8037C1.8711 20.3235 1.4553 20.7393 0.93555 20.7393C0.4158 20.7393 0 20.3235 0 19.8037V6.40456C0 2.94302 2.81705 0.125977 6.27858 0.125977H18.6798C22.1621 0.125977 25 2.94302 25 6.40456V19.97C25.0104 23.4212 22.1725 26.2382 18.6902 26.2382Z" fill="#5F5F5F"/>
<path d="M12.6331 11.3237C12.6169 11.3237 12.6007 11.3237 12.5845 11.3237C8.59147 10.8994 6.30049 8.02991 6.20323 7.90709C6.03573 7.68937 6.06815 7.37674 6.27347 7.19809C6.4842 7.02503 6.78678 7.05853 6.95968 7.27067C6.9867 7.30416 9.11559 9.94477 12.6872 10.3244C12.9519 10.3523 13.1464 10.5979 13.1194 10.8771C13.087 11.1339 12.8763 11.3237 12.6331 11.3237Z" fill="#5F5F5F"/>
<path d="M10.8014 14.0951C9.75858 14.0951 8.87244 13.8048 8.22945 13.4978C7.1596 12.9897 6.36532 12.2528 6.20323 11.9179C6.08435 11.6722 6.18161 11.3652 6.41936 11.2424C6.6517 11.1195 6.93807 11.2144 7.06235 11.4489C7.29469 11.7895 9.49922 13.8104 12.3684 12.8223C12.6223 12.7329 12.8979 12.8781 12.9843 13.1405C13.0708 13.4029 12.9303 13.6876 12.6763 13.7769C12.0171 14.0058 11.385 14.0951 10.8014 14.0951Z" fill="#5F5F5F"/>
<path d="M10.2827 16.5874C8.72115 16.5874 7.6459 15.9956 7.58646 15.9621C7.34872 15.8282 7.26226 15.5267 7.39194 15.2811C7.52162 15.0354 7.8134 14.9461 8.05114 15.0801C8.06735 15.0912 9.78019 16.0124 11.9253 15.3201C12.1792 15.2364 12.4548 15.3871 12.5359 15.6495C12.6169 15.9119 12.471 16.1966 12.2171 16.2804C11.52 16.5092 10.8662 16.5874 10.2827 16.5874Z" fill="#5F5F5F"/>
<path d="M10.7582 19.4936C9.37495 19.4936 7.84042 19.2088 6.19242 18.6394C5.93847 18.5501 5.79798 18.2654 5.88443 18.003C5.97089 17.7406 6.24645 17.5954 6.50041 17.6848C9.92068 18.8683 12.752 18.7455 14.6756 17.3163C16.3992 16.0379 17.3177 13.7825 17.3232 10.7902C17.3232 10.6283 17.3988 10.4775 17.5285 10.3826L19.2467 9.12094C19.4683 8.95904 19.7708 9.01487 19.9221 9.23817C20.0788 9.46706 20.0248 9.77969 19.8087 9.93601L18.2903 11.0525C18.2255 14.2514 17.1719 16.6966 15.2375 18.1314C14.0218 19.0414 12.5088 19.4936 10.7582 19.4936Z" fill="#5F5F5F"/>
<path d="M12.6277 11.3237C12.39 11.3237 12.1846 11.145 12.1468 10.8938C11.9145 9.28601 12.4656 7.92384 13.6165 7.24275C14.7944 6.5505 16.3127 6.74031 17.4961 7.72844C17.7068 7.90151 17.7392 8.21972 17.5663 8.43744C17.3988 8.65517 17.0908 8.68866 16.8801 8.51002C16.0156 7.78427 14.9187 7.62795 14.092 8.11365C13.2923 8.58259 12.9303 9.54281 13.1032 10.7431C13.141 11.0166 12.9573 11.2734 12.6926 11.3125C12.6763 11.3237 12.6547 11.3237 12.6277 11.3237Z" fill="#5F5F5F"/>
<path d="M12.6331 11.3237C12.6169 11.3237 12.6007 11.3237 12.5845 11.3237C8.59147 10.8994 6.30049 8.02991 6.20323 7.90709C6.03573 7.68937 6.06815 7.37674 6.27347 7.19809C6.4842 7.02503 6.78678 7.05853 6.95968 7.27067C6.9867 7.30416 9.11559 9.94477 12.6872 10.3244C12.9519 10.3523 13.1464 10.5979 13.1194 10.8771C13.087 11.1339 12.8763 11.3237 12.6331 11.3237Z" stroke="#5F5F5F" stroke-width="0.5"/>
<path d="M10.8014 14.0951C9.75858 14.0951 8.87244 13.8048 8.22945 13.4978C7.1596 12.9897 6.36532 12.2528 6.20323 11.9179C6.08435 11.6722 6.18161 11.3652 6.41936 11.2424C6.6517 11.1195 6.93807 11.2144 7.06235 11.4489C7.29469 11.7895 9.49922 13.8104 12.3684 12.8223C12.6223 12.7329 12.8979 12.8781 12.9843 13.1405C13.0708 13.4029 12.9303 13.6876 12.6763 13.7769C12.0171 14.0058 11.385 14.0951 10.8014 14.0951Z" stroke="#5F5F5F" stroke-width="0.5"/>
<path d="M10.2827 16.5874C8.72115 16.5874 7.6459 15.9956 7.58646 15.9621C7.34872 15.8282 7.26226 15.5267 7.39194 15.2811C7.52162 15.0354 7.8134 14.9461 8.05114 15.0801C8.06735 15.0912 9.78019 16.0124 11.9253 15.3201C12.1792 15.2364 12.4548 15.3871 12.5359 15.6495C12.6169 15.9119 12.471 16.1966 12.2171 16.2804C11.52 16.5092 10.8662 16.5874 10.2827 16.5874Z" stroke="#5F5F5F" stroke-width="0.5"/>
<path d="M10.7582 19.4936C9.37495 19.4936 7.84042 19.2088 6.19242 18.6394C5.93847 18.5501 5.79798 18.2654 5.88443 18.003C5.97089 17.7406 6.24645 17.5954 6.50041 17.6848C9.92068 18.8683 12.752 18.7455 14.6756 17.3163C16.3992 16.0379 17.3177 13.7825 17.3232 10.7902C17.3232 10.6283 17.3988 10.4775 17.5285 10.3826L19.2467 9.12094C19.4683 8.95904 19.7708 9.01487 19.9221 9.23817C20.0788 9.46706 20.0248 9.77969 19.8087 9.93601L18.2903 11.0525C18.2255 14.2514 17.1719 16.6966 15.2375 18.1314C14.0218 19.0414 12.5088 19.4936 10.7582 19.4936Z" stroke="#5F5F5F" stroke-width="0.5"/>
<path d="M12.6277 11.3237C12.39 11.3237 12.1846 11.145 12.1468 10.8938C11.9145 9.28601 12.4656 7.92384 13.6165 7.24275C14.7944 6.5505 16.3127 6.74031 17.4961 7.72844C17.7068 7.90151 17.7392 8.21972 17.5663 8.43744C17.3988 8.65517 17.0908 8.68866 16.8801 8.51002C16.0156 7.78427 14.9187 7.62795 14.092 8.11365C13.2923 8.58259 12.9303 9.54281 13.1032 10.7431C13.141 11.0166 12.9573 11.2734 12.6926 11.3125C12.6763 11.3237 12.6547 11.3237 12.6277 11.3237Z" stroke="#5F5F5F" stroke-width="0.5"/>
</svg>
