<svg width="25" height="27" viewBox="0 0 25 27" fill="none" xmlns="http://www.w3.org/2000/svg">
<path d="M17.146 12.2995C16.9826 12.2038 16.7678 12.2506 16.6661 12.404C16.5643 12.5574 16.6141 12.7591 16.7774 12.8547C17.1573 13.0773 17.384 13.4611 17.384 13.8817C17.384 14.3022 17.1573 14.6861 16.7774 14.9086L11.0637 18.2547C10.6607 18.4908 10.1721 18.5024 9.7568 18.286C9.34147 18.0695 9.09352 17.6739 9.09352 17.2278V10.5355C9.09352 10.0894 9.34147 9.69379 9.7568 9.47731C10.1721 9.26089 10.6607 9.2725 11.0637 9.50856L14.3898 11.4565C14.5531 11.552 14.7679 11.5053 14.8698 11.3519C14.9715 11.1986 14.9217 10.9968 14.7585 10.9012L11.4324 8.95335C10.8114 8.5897 10.0587 8.57165 9.41874 8.9052C8.77891 9.2387 8.39691 9.84816 8.39691 10.5355V17.2277C8.39691 17.9151 8.77891 18.5245 9.4188 18.858C9.72359 19.0169 10.0539 19.096 10.3834 19.096C10.7458 19.096 11.1072 19.0003 11.4324 18.8099L17.146 15.4637C17.7313 15.1209 18.0808 14.5295 18.0808 13.8816C18.0808 13.2337 17.7313 12.6423 17.146 12.2995Z" fill="#5F5F5F" stroke="#5F5F5F"/>
<path d="M18.6902 26.5854H6.52806C6.00831 26.5854 5.59251 26.1696 5.59251 25.6498C5.59251 25.1301 6.00831 24.7143 6.52806 24.7143H18.6902C21.1434 24.7143 23.1393 22.7392 23.1393 20.3068V6.75172C23.1393 4.31929 21.1434 2.34424 18.6902 2.34424H6.27858C3.84615 2.34424 1.8711 4.31929 1.8711 6.75172V20.1509C1.8711 20.6706 1.4553 21.0864 0.93555 21.0864C0.4158 21.0864 0 20.6706 0 20.1509V6.75172C0 3.29019 2.81705 0.473145 6.27858 0.473145H18.6798C22.1621 0.473145 25 3.29019 25 6.75172V20.3172C25.0104 23.7683 22.1725 26.5854 18.6902 26.5854Z" fill="#5F5F5F"/>
</svg>
